<?xml version="1.0" standalone="no"?>
<!DOCTYPE svg PUBLIC "-//W3C//DTD SVG 20010904//EN"
 "http://www.w3.org/TR/2001/REC-SVG-20010904/DTD/svg10.dtd">
<svg version="1.0" xmlns="http://www.w3.org/2000/svg"
 width="500.000000pt" height="500.000000pt" viewBox="0 0 500.000000 500.000000"
 preserveAspectRatio="xMidYMid meet">
<metadata>
Created by potrace 1.14, written by Peter Selinger 2001-2017
</metadata>
<g transform="translate(0.000000,500.000000) scale(0.100000,-0.100000)"
fill="#000000" stroke="none">
<path d="M0 2500 l0 -2500 2500 0 2500 0 0 2500 0 2500 -2500 0 -2500 0 0
-2500z m1325 1072 c285 -78 427 -254 394 -489 -25 -176 -156 -326 -386 -442
-35 -17 -63 -33 -63 -35 0 -2 24 -9 53 -16 99 -23 213 -86 286 -158 106 -105
151 -216 151 -378 0 -282 -182 -472 -506 -528 -72 -13 -179 -16 -560 -16
l-471 0 21 78 c20 75 20 97 21 962 0 797 -2 891 -17 950 -9 36 -20 73 -24 83
-6 18 13 18 507 15 491 -4 518 -5 594 -26z m1391 -642 c189 -366 347 -666 351
-667 5 -1 163 298 353 665 l345 667 189 3 c177 2 188 1 181 -15 -38 -100 -39
-113 -42 -963 -4 -837 0 -969 33 -1062 8 -22 14 -42 14 -44 0 -2 -95 -4 -211
-4 -197 0 -211 1 -204 18 38 99 38 111 42 982 2 464 1 841 -3 837 -4 -4 -175
-330 -379 -725 l-372 -717 -64 -3 -64 -3 -360 698 -360 697 -3 -707 c-2 -777
-2 -787 57 -913 17 -37 51 -85 80 -114 l50 -50 -175 0 c-166 0 -175 1 -169 19
38 121 38 126 42 1073 4 914 4 917 -17 958 l-21 40 182 -2 182 -3 343 -665z
m2070 648 c-41 -141 -41 -138 -41 -1023 0 -778 2 -857 18 -932 10 -46 20 -90
23 -98 5 -13 -21 -15 -201 -15 l-207 0 6 28 c35 149 35 168 36 1004 0 824 -4
929 -35 1018 l-14 40 211 0 210 0 -6 -22z"/>
<path d="M590 2889 l0 -612 31 46 c52 79 154 162 367 299 220 141 306 216 356
307 56 104 72 232 40 325 -20 58 -93 135 -162 170 -111 56 -179 68 -414 73
l-218 5 0 -613z"/>
<path d="M1021 2484 c-69 -35 -154 -85 -191 -109 -88 -58 -175 -151 -208 -222
-26 -57 -27 -62 -30 -300 l-4 -243 186 0 c213 0 294 13 403 65 213 100 305
308 243 549 -23 90 -59 160 -112 221 -40 45 -125 105 -149 105 -8 0 -70 -30
-138 -66z"/>
</g>
</svg>
